<svg width="21" height="19" viewBox="0 0 21 19" fill="none" xmlns="http://www.w3.org/2000/svg">
<path d="M18.5 0.548828H2.5C1.96957 0.548828 1.46086 0.759542 1.08579 1.13461C0.710714 1.50969 0.5 2.0184 0.5 2.54883V6.54883C0.5 7.07926 0.710714 7.58797 1.08579 7.96304C1.46086 8.33811 1.96957 8.54883 2.5 8.54883H18.5C19.0304 8.54883 19.5391 8.33811 19.9142 7.96304C20.2893 7.58797 20.5 7.07926 20.5 6.54883V2.54883C20.5 2.0184 20.2893 1.50969 19.9142 1.13461C19.5391 0.759542 19.0304 0.548828 18.5 0.548828ZM13.5 4.54883C13.5 5.10111 13.0523 5.54883 12.5 5.54883C11.9477 5.54883 11.5 5.10111 11.5 4.54883C11.5 3.99654 11.9477 3.54883 12.5 3.54883C13.0523 3.54883 13.5 3.99654 13.5 4.54883ZM17.5 4.54883C17.5 5.10111 17.0523 5.54883 16.5 5.54883C15.9477 5.54883 15.5 5.10111 15.5 4.54883C15.5 3.99654 15.9477 3.54883 16.5 3.54883C17.0523 3.54883 17.5 3.99654 17.5 4.54883ZM18.5 10.5488H2.5C1.96957 10.5488 1.46086 10.7595 1.08579 11.1346C0.710714 11.5097 0.5 12.0184 0.5 12.5488V16.5488C0.5 17.0793 0.710714 17.588 1.08579 17.963C1.46086 18.3381 1.96957 18.5488 2.5 18.5488H18.5C19.0304 18.5488 19.5391 18.3381 19.9142 17.963C20.2893 17.588 20.5 17.0793 20.5 16.5488V12.5488C20.5 12.0184 20.2893 11.5097 19.9142 11.1346C19.5391 10.7595 19.0304 10.5488 18.5 10.5488ZM13.5 14.5488C13.5 15.1011 13.0523 15.5488 12.5 15.5488C11.9477 15.5488 11.5 15.1011 11.5 14.5488C11.5 13.9965 11.9477 13.5488 12.5 13.5488C13.0523 13.5488 13.5 13.9965 13.5 14.5488ZM17.5 14.5488C17.5 15.1011 17.0523 15.5488 16.5 15.5488C15.9477 15.5488 15.5 15.1011 15.5 14.5488C15.5 13.9965 15.9477 13.5488 16.5 13.5488C17.0523 13.5488 17.5 13.9965 17.5 14.5488Z" fill="#F53838"/>
</svg>
